<svg width="474" height="320" viewBox="0 0 474 320" fill="none" xmlns="http://www.w3.org/2000/svg">
<g clip-path="url(#clip0_15_1058)">
<path d="M474 0.283203H0.202271V320H474V0.283203Z" fill="#E6E6E6"/>
<path d="M460.452 40.3833H13.7505V301.085H460.452V40.3833Z" fill="white"/>
<path d="M473.798 0H0V21.2083H473.798V0Z" fill="#800AD6"/>
<path d="M14.958 14.7737C17.0184 14.7737 18.6887 13.0138 18.6887 10.8429C18.6887 8.67199 17.0184 6.91211 14.958 6.91211C12.8976 6.91211 11.2273 8.67199 11.2273 10.8429C11.2273 13.0138 12.8976 14.7737 14.958 14.7737Z" fill="white"/>
<path d="M29.1188 14.7737C31.1792 14.7737 32.8494 13.0138 32.8494 10.8429C32.8494 8.67199 31.1792 6.91211 29.1188 6.91211C27.0583 6.91211 25.3881 8.67199 25.3881 10.8429C25.3881 13.0138 27.0583 14.7737 29.1188 14.7737Z" fill="white"/>
<path d="M43.2795 14.7737C45.3399 14.7737 47.0102 13.0138 47.0102 10.8429C47.0102 8.67199 45.3399 6.91211 43.2795 6.91211C41.2191 6.91211 39.5488 8.67199 39.5488 10.8429C39.5488 13.0138 41.2191 14.7737 43.2795 14.7737Z" fill="white"/>
<path d="M156.08 61.8262H68.712V161.697H156.08V61.8262Z" fill="#E6E6E6"/>
<path d="M280.784 61.8262H193.416V161.697H280.784V61.8262Z" fill="#E6E6E6"/>
<path d="M405.488 61.8262H318.12V161.697H405.488V61.8262Z" fill="#E6E6E6"/>
<path d="M156.08 179.774H68.712V279.645H156.08V179.774Z" fill="#E6E6E6"/>
<path d="M280.784 179.774H193.416V279.645H280.784V179.774Z" fill="#E6E6E6"/>
<path d="M405.488 179.774H318.12V279.645H405.488V179.774Z" fill="#E6E6E6"/>
<path d="M102.649 122.215C110.805 122.215 117.417 115.248 117.417 106.654C117.417 98.0601 110.805 91.0933 102.649 91.0933C94.4921 91.0933 87.88 98.0601 87.88 106.654C87.88 115.248 94.4921 122.215 102.649 122.215Z" fill="#FFB9B9"/>
<path d="M96.8796 118.568C96.8796 118.568 98.7257 127.807 98.7257 128.78C98.7257 129.752 107.495 134.129 107.495 134.129L115.34 132.67L118.11 123.917C118.11 123.917 113.494 116.623 113.494 113.705L96.8796 118.568Z" fill="#FFB9B9"/>
<path d="M89.8413 94.1174C89.8413 94.1174 94.5303 83.413 103.517 85.8833C112.505 88.3535 117.584 92.0589 117.975 95.7642C118.366 99.4696 117.78 105.028 117.78 105.028C117.78 105.028 116.803 97.4111 110.551 99.0579C104.299 100.705 94.5303 99.4696 94.5303 99.4696L92.9673 114.291C92.9673 114.291 91.2089 111.615 89.2551 113.262C87.3014 114.909 83.5893 97.4111 89.8413 94.1174Z" fill="#2F2E41"/>
<path d="M149.491 157.957L145.802 140.448C143.952 134.611 139.341 129.753 139.341 129.753L116.581 121.319H116.575C116.531 123.439 115.853 125.49 114.637 127.18C113.422 128.87 111.731 130.112 109.806 130.731C102.881 133.157 98.1131 124.98 98.1131 124.98L78.8739 140.448C78.8739 140.448 72.8765 145.801 73.3405 156.013L72.7025 161.697H151.266L149.491 157.957Z" fill="#800AD6"/>
<path d="M227.019 129.969C238.09 129.969 247.065 119.931 247.065 107.549C247.065 95.1664 238.09 85.1284 227.019 85.1284C215.948 85.1284 206.973 95.1664 206.973 107.549C206.973 119.931 215.948 129.969 227.019 129.969Z" fill="#2F2E41"/>
<path d="M244.805 141.477C250.629 141.477 255.35 136.503 255.35 130.366C255.35 124.23 250.629 119.255 244.805 119.255C238.981 119.255 234.259 124.23 234.259 130.366C234.259 136.503 238.981 141.477 244.805 141.477Z" fill="#2F2E41"/>
<path d="M237.461 115.486L243.11 130.961L228.799 137.311L227.542 134.31L223.149 123.819L237.461 115.486Z" fill="#9F616A"/>
<path d="M226.162 125.604C233.13 125.604 238.779 119.652 238.779 112.311C238.779 104.969 233.13 99.0171 226.162 99.0171C219.194 99.0171 213.545 104.969 213.545 112.311C213.545 119.652 219.194 125.604 226.162 125.604Z" fill="#9F616A"/>
<path d="M215.849 110.853C223.78 105.277 226.15 103.944 235.24 106.098L235.785 92.126L212.296 97.3177L215.849 110.853Z" fill="#2F2E41"/>
<path d="M266.835 142.465L266.487 142.508C266.478 142.494 266.469 142.482 266.458 142.471C265.077 141.016 258.488 138.37 253.576 136.537H253.57C250.449 135.37 248.007 134.532 248.007 134.532L242.068 128.097C240.572 129.869 237.41 131.238 234.406 132.204C232.106 132.938 229.766 133.525 227.399 133.964H227.393L226.164 138.101C226.164 138.101 212.226 149.218 211.101 150.403H211.095V150.416C211.005 150.551 210.968 150.717 210.991 150.88V150.911C210.288 154.459 209.926 158.073 209.912 161.697H270.605V157.945C270.605 152.787 266.835 142.465 266.835 142.465Z" fill="#575A89"/>
<path d="M378.442 161.697H348.432L346.779 144.518L346.68 143.473L346.477 141.401L345.648 132.742L344.609 142.043L342.417 161.697H336.965L337.168 155.579L337.371 149.376L337.458 146.877L338.577 112.874C338.491 107.485 340.11 102.22 343.177 97.9072C344.88 95.5713 347.077 93.6868 349.594 92.404C352.11 91.1213 354.876 90.4756 357.672 90.5186C360.523 90.5088 363.339 91.1951 365.897 92.5236C368.455 93.8522 370.686 95.7868 372.416 98.1761C375.586 102.532 377.282 107.88 377.236 113.369L377.752 133.952L378.442 161.697Z" fill="#2F2E41"/>
<path d="M357.672 125.042C364.962 125.042 370.872 118.815 370.872 111.134C370.872 103.452 364.962 97.2256 357.672 97.2256C350.382 97.2256 344.472 103.452 344.472 111.134C344.472 118.815 350.382 125.042 357.672 125.042Z" fill="#FBBEBE"/>
<path d="M351.072 121.068C351.072 121.068 354.843 134.48 351.072 138.453C347.3 142.427 346.357 143.917 346.357 143.917L357.2 159.315L376.058 134.976C376.058 134.976 362.857 131.002 366.157 120.075L351.072 121.068Z" fill="#FBBEBE"/>
<path d="M391.794 161.697H380.657L380.472 159.686L380.304 157.829L385.431 157.15L391.614 156.337L391.684 158.421L391.794 161.697Z" fill="#FBBEBE"/>
<path d="M392.558 158.322C392.558 158.322 390.672 145.904 389.258 140.937C387.843 135.969 386.429 135.969 386.429 135.969H386.429L386.429 135.968C384.764 134.214 380.762 133.903 377.752 133.951C375.64 133.976 374.016 134.171 374.016 134.171L357.202 152.86L348.733 140.998V140.992C347.971 141.054 347.216 141.191 346.477 141.401C345.842 141.572 345.218 141.786 344.609 142.043C341.987 143.224 339.57 144.857 337.458 146.877H337.452C336.234 148.032 335.515 148.881 335.515 148.881C333.65 152.967 332.244 157.268 331.327 161.697H385.211L385.333 159.142V159.137L392.558 158.322Z" fill="#800AD6"/>
<path d="M346.593 108.898C355.118 104.056 358.621 104.261 369.222 108.898L372.05 101.637C372.049 100.27 371.533 98.9593 370.615 97.9926C369.698 97.0258 368.454 96.482 367.156 96.4805H348.187C346.89 96.482 345.646 97.0258 344.728 97.9926C343.811 98.9593 343.295 100.27 343.293 101.637L346.593 108.898Z" fill="#2F2E41"/>
<path d="M111.241 203.947C110.539 203.886 109.835 204.052 109.224 204.422C108.644 204.942 108.179 205.59 107.86 206.319C106.384 209.049 104.386 211.427 101.992 213.302C100.249 214.648 98.0325 216.326 98.3308 218.807C98.4881 219.626 98.7754 220.412 99.1806 221.131C100.789 224.551 105.178 227.195 104.746 231.099C106.344 228.28 104.207 226.886 105.805 224.068C106.566 222.725 107.888 221.21 109.037 222.053C109.421 222.335 109.674 222.841 110.074 223.089C111.03 223.68 112.047 222.55 112.893 221.75C115.81 218.991 119.959 219.714 123.59 220.573C125.304 220.979 127.186 221.512 128.199 223.238C129.531 225.507 126.934 227.958 126.277 230.523C126.224 230.742 126.221 230.971 126.27 231.191C126.319 231.411 126.417 231.615 126.557 231.786C126.697 231.957 126.874 232.09 127.073 232.173C127.273 232.256 127.488 232.287 127.701 232.263C128.791 232.15 130.081 232.057 130.145 231.554C131.516 231.605 133.195 231.441 133.782 229.938C133.962 229.343 134.057 228.723 134.064 228.099C134.279 225.573 135.297 223.269 135.971 220.865C136.645 218.461 136.938 215.644 135.801 213.512C135.395 212.803 134.893 212.16 134.31 211.604C127.855 205.022 119.369 203.937 111.241 203.947Z" fill="#2F2E41"/>
<path d="M106.15 236.029C106.15 236.029 107.554 248.355 102.406 249.341C97.2591 250.327 107.086 267.09 107.086 267.09L130.483 270.048L124.867 250.327C124.867 250.327 121.124 248.848 123.463 238.987C125.803 229.126 106.15 236.029 106.15 236.029Z" fill="#9F616A"/>
<path d="M116.678 244.164C124.431 244.164 130.717 237.542 130.717 229.373C130.717 221.204 124.431 214.582 116.678 214.582C108.925 214.582 102.64 221.204 102.64 229.373C102.64 237.542 108.925 244.164 116.678 244.164Z" fill="#9F616A"/>
<path d="M92.516 279.645C94.9985 269.359 98.4264 255.505 98.4264 255.505C98.4264 255.505 99.7604 255.792 101.86 256.116C104.927 256.597 108.018 256.893 111.117 257.002C115.085 257.119 119.261 256.844 122.491 255.664C123.709 255.252 124.847 254.613 125.85 253.776C126.272 253.417 126.65 253.005 126.975 252.547C132.589 244.658 134.927 274.731 134.927 274.731L135.362 279.645L92.516 279.645Z" fill="#800AD6"/>
<path d="M137.369 311.424C137.183 311.424 136.998 311.43 136.812 311.442L137.079 310.917C137.172 311.082 137.264 311.253 137.369 311.424Z" fill="#FFB8B8"/>
<path d="M111.925 207.817C111.359 207.773 110.792 207.888 110.283 208.152C109.823 208.507 109.443 208.965 109.172 209.493C107.924 211.471 106.297 213.153 104.396 214.429C102.977 215.38 101.173 216.566 101.415 218.32C101.547 218.908 101.782 219.465 102.107 219.962C103.421 222.404 103.944 225.231 103.597 228.015L107.499 222.038C108.119 221.089 109.195 220.018 110.13 220.614C110.443 220.814 110.649 221.171 110.975 221.346C111.753 221.764 112.581 220.966 113.27 220.4C115.645 218.45 119.022 218.961 121.977 219.568C123.372 219.855 124.905 220.232 125.729 221.452C127.1 223.479 125.669 226.408 126.469 228.75C126.693 228.585 126.883 228.374 127.028 228.13C127.173 227.886 127.27 227.613 127.314 227.329C128.429 227.365 129.796 227.25 130.274 226.187C130.42 225.771 130.497 225.331 130.504 224.887C130.679 223.102 131.507 221.474 132.056 219.774C132.605 218.075 132.843 216.084 131.917 214.578C131.579 214.067 131.17 213.613 130.704 213.229C125.45 208.577 118.541 207.81 111.925 207.817Z" fill="#2F2E41"/>
<path d="M110.595 255.994C107.394 252.138 105.491 246.516 105.404 246.265V246.259C105.404 246.259 100.3 243.179 98.8962 246.137C97.4926 249.095 84.39 256.489 82.9863 256.489C82.9751 256.494 82.9635 256.499 82.9515 256.501C82.3947 256.697 75.4229 259.368 73.6306 269.311C73.1439 272.732 72.8842 276.185 72.8534 279.645H111.013C111.407 275.288 111.703 271.211 111.819 267.691C111.987 262.784 111.825 258.97 111.117 257.003C111.004 256.635 110.827 256.293 110.595 255.994Z" fill="#2F2E41"/>
<path d="M143.407 258.769C143.384 258.653 143.366 258.555 143.349 258.463C143.287 258.201 143.181 257.953 143.036 257.73C143.033 257.724 143.031 257.718 143.03 257.712C140.327 253.299 122.944 247.225 122.944 247.225L122.294 249.59C122.294 249.59 122.375 251.924 122.491 255.664C122.607 259.166 122.747 263.896 122.88 269.091C122.973 272.483 123.054 276.076 123.129 279.645H149.132C147.675 272.558 145.762 265.583 143.407 258.769Z" fill="#2F2E41"/>
<path d="M386.69 279.645L388.679 269.402L390.53 268.577L390.541 268.583C390.709 268.65 392.722 269.549 392.722 272.953C392.722 273.637 392.623 276.1 392.461 279.645H386.69Z" fill="#575A89"/>
<path d="M365.793 243.869C374.717 243.869 381.95 236.247 381.95 226.846C381.95 217.444 374.717 209.822 365.793 209.822C356.87 209.822 349.637 217.444 349.637 226.846C349.637 236.247 356.87 243.869 365.793 243.869Z" fill="#FFB8B8"/>
<path d="M375.891 236.776L374.545 265.857L353.676 253.09L356.368 236.776H375.891Z" fill="#FFB8B8"/>
<path d="M381.951 267.275L380.582 279.645H369.626L357.735 255.572L354.383 248.795L352.776 247.689L354.638 247.243L356.105 248.361L372.526 260.895L375.159 252.566L375.228 252.352L375.89 250.256L381.951 267.275Z" fill="#800AD6"/>
<path d="M356.032 210.177C356.032 210.177 358.051 199.537 369.496 201.665L368.149 202.374C368.149 202.374 378.921 200.956 377.574 207.34C377.574 207.34 386.326 213.014 384.306 219.398C383.119 223.098 382.218 226.893 381.613 230.747L379.594 228.619C379.594 228.619 377.574 214.433 365.457 215.851C356.368 216.915 352.666 221.437 351.719 224.695C351.283 226.228 350.727 227.719 350.056 229.153L349.3 229.328C349.3 229.328 345.261 213.723 356.032 210.177Z" fill="#2F2E41"/>
<path d="M390.541 268.583L390.53 268.577L381.951 260.18V254.509L375.327 249.009L375.229 252.352L374.544 275.08L363.53 259.117L356.105 248.361L354.771 246.436L355.096 244.633L350.984 249.541L336.101 261.305L334.825 262.313C333.361 263.857 332.011 265.515 330.788 267.276C330.387 267.905 328.566 272.916 326.194 279.645H392.461C392.623 276.1 392.722 273.638 392.722 272.953C392.722 269.549 390.709 268.651 390.541 268.583Z" fill="#2F2E41"/>
<path d="M235.771 208.146C224.822 208.146 215.947 218.525 215.947 231.326V247.592H220.695L223.443 241.565L222.756 247.592H253.273L255.771 242.113L255.147 247.592H258.583V234.821C258.583 220.089 248.369 208.146 235.771 208.146Z" fill="#2F2E41"/>
<path d="M219.772 279.645H206.878L206.757 268.565C206.751 268.449 206.751 268.339 206.751 268.223L209.332 265.161L209.378 265.106L219.233 271.682L219.772 279.645Z" fill="#D0CDE1"/>
<path d="M234.017 245.319C241.811 245.319 248.129 238.661 248.129 230.449C248.129 222.237 241.811 215.58 234.017 215.58C226.222 215.58 219.904 222.237 219.904 230.449C219.904 238.661 226.222 245.319 234.017 245.319Z" fill="#FBBEBE"/>
<path d="M225.925 239.371C225.925 239.371 230.065 261.972 228.183 264.352C226.302 266.731 248.129 259.99 248.129 259.99C248.129 259.99 240.979 244.526 244.742 235.802L225.925 239.371Z" fill="#FBBEBE"/>
<path d="M264.213 254.656H264.207C263.875 253.915 263.3 253.325 262.589 252.994C259.822 251.765 257.439 250.824 255.478 250.109C252.01 248.855 248.228 248.979 244.841 250.457C244.51 250.598 244.185 250.751 243.866 250.922C243.866 250.922 230.067 253.69 228.426 253.342C228.304 253.318 228.177 253.299 228.055 253.287C227.807 253.249 227.557 253.227 227.307 253.22C224.096 253.063 220.911 253.895 218.142 255.615C213.612 258.384 206.896 263.291 206.757 268.07L206.629 268.223L206.757 279.645H267.322C267.444 268.7 267.513 260.474 267.513 259.918C267.513 258.188 264.213 254.656 264.213 254.656Z" fill="#800AD6"/>
<path d="M241.406 214.532C240.452 213.182 239.216 212.082 237.793 211.317C236.371 210.552 234.8 210.143 233.203 210.121H232.814C225.31 210.121 219.226 217.276 219.226 226.101V226.101H221.741L222.147 222.844L222.742 226.101H237.655L238.904 223.346L238.592 226.101H241.526C242.895 233.265 240.928 240.428 235.625 247.591H240.622L243.121 242.081L242.496 247.591H252.023L253.897 234.918C253.897 225.426 248.663 217.378 241.406 214.532Z" fill="#2F2E41"/>
<path d="M244.145 215.867C248.246 215.867 251.57 212.364 251.57 208.043C251.57 203.723 248.246 200.22 244.145 200.22C240.044 200.22 236.72 203.723 236.72 208.043C236.72 212.364 240.044 215.867 244.145 215.867Z" fill="#2F2E41"/>
</g>
<defs>
<clipPath id="clip0_15_1058">
<rect width="474" height="320" fill="white"/>
</clipPath>
</defs>
</svg>
