<svg width="114" height="97" viewBox="0 0 114 97" fill="none" xmlns="http://www.w3.org/2000/svg">
<g opacity="0.2" clip-path="url(#clip0_15_1231)">
<path fill-rule="evenodd" clip-rule="evenodd" d="M0.499962 81.8503C17.4997 73.4338 25.9995 63.5445 25.9995 52.1822C18.7537 51.3406 12.762 48.3598 8.02441 43.2397C3.28677 38.1196 0.917992 32.1931 0.917992 25.4599C0.917992 18.3058 3.2171 12.2741 7.8154 7.36443C12.4137 2.45478 18.1963 0 25.1634 0C32.9666 0 39.7246 3.19122 45.4376 9.57375C51.1507 15.9563 54.0071 23.7064 54.0071 32.8243C54.0071 60.178 38.819 81.5697 8.44243 97L0.499962 81.8503ZM60.4928 81.8503C77.6319 73.4338 86.2014 63.5445 86.2014 52.1822C78.8162 51.3406 72.7549 48.3598 68.0173 43.2397C63.2796 38.1196 60.9109 32.1931 60.9109 25.4599C60.9109 18.3058 63.2448 12.2741 67.9128 7.36443C72.5807 2.45478 78.3982 0 85.3653 0C93.1685 0 99.8916 3.19122 105.535 9.57375C111.178 15.9563 114 23.7064 114 32.8243C114 60.178 98.8816 81.5697 68.6443 97L60.4928 81.8503Z" fill="white"/>
</g>
<defs>
<clipPath id="clip0_15_1231">
<rect width="114" height="97" fill="white" transform="translate(114 97) rotate(-180)"/>
</clipPath>
</defs>
</svg>
