<svg width="33" height="32" viewBox="0 0 33 32" fill="none" xmlns="http://www.w3.org/2000/svg">
<path d="M16.0063 21C18.7678 21 21.0063 18.7614 21.0063 16C21.0063 13.2386 18.7678 11 16.0063 11C13.2449 11 11.0063 13.2386 11.0063 16C11.0063 18.7614 13.2449 21 16.0063 21Z" stroke="#1DCDFE" stroke-width="1.5" stroke-linecap="round" stroke-linejoin="round"/>
<path d="M21.5063 4.5H10.5063C7.19264 4.5 4.50635 7.18629 4.50635 10.5V21.5C4.50635 24.8137 7.19264 27.5 10.5063 27.5H21.5063C24.8201 27.5 27.5063 24.8137 27.5063 21.5V10.5C27.5063 7.18629 24.8201 4.5 21.5063 4.5Z" stroke="#1DCDFE" stroke-width="1.5" stroke-linecap="round" stroke-linejoin="round"/>
<path d="M22.5063 10.75C23.1967 10.75 23.7563 10.1904 23.7563 9.5C23.7563 8.80964 23.1967 8.25 22.5063 8.25C21.816 8.25 21.2563 8.80964 21.2563 9.5C21.2563 10.1904 21.816 10.75 22.5063 10.75Z" fill="#1DCDFE"/>
</svg>
