<svg width="25" height="25" viewBox="0 0 25 25" fill="none" xmlns="http://www.w3.org/2000/svg">
<path d="M16.5778 8.75244C18.1691 8.75244 19.6952 9.38458 20.8204 10.5098C21.9456 11.635 22.5778 13.1611 22.5778 14.7524V21.7524H18.5778V14.7524C18.5778 14.222 18.367 13.7133 17.992 13.3382C17.6169 12.9632 17.1082 12.7524 16.5778 12.7524C16.0473 12.7524 15.5386 12.9632 15.1635 13.3382C14.7885 13.7133 14.5778 14.222 14.5778 14.7524V21.7524H10.5778V14.7524C10.5778 13.1611 11.2099 11.635 12.3351 10.5098C13.4603 9.38458 14.9865 8.75244 16.5778 8.75244Z" stroke="#1DCDFE" stroke-linecap="round" stroke-linejoin="round"/>
<path d="M6.57776 9.75244H2.57776V21.7524H6.57776V9.75244Z" stroke="#1DCDFE" stroke-linecap="round" stroke-linejoin="round"/>
<path d="M4.57776 6.75244C5.68233 6.75244 6.57776 5.85701 6.57776 4.75244C6.57776 3.64787 5.68233 2.75244 4.57776 2.75244C3.47319 2.75244 2.57776 3.64787 2.57776 4.75244C2.57776 5.85701 3.47319 6.75244 4.57776 6.75244Z" stroke="#1DCDFE" stroke-linecap="round" stroke-linejoin="round"/>
</svg>
