<svg width="33" height="32" viewBox="0 0 33 32" fill="none" xmlns="http://www.w3.org/2000/svg">
<path d="M16.0065 11.0004C16.0066 9.85156 16.4023 8.73783 17.1269 7.84641C17.8516 6.95498 18.861 6.34023 19.9856 6.10551C21.1102 5.87078 22.2812 6.0304 23.302 6.55752C24.3227 7.08464 25.1308 7.94712 25.5905 8.99996L30.0065 9L25.9737 13.0328C25.7111 17.089 23.9147 20.8933 20.9491 23.6731C17.9836 26.4529 14.0712 27.9999 10.0065 28C6.00653 28 5.00653 26.5 5.00653 26.5C5.00653 26.5 9.00653 25 11.0065 22C11.0065 22 3.00653 18 5.00653 7C5.00653 7 10.0065 12 16.0048 13L16.0065 11.0004Z" stroke="#1DCDFE" stroke-width="1.5" stroke-linecap="round" stroke-linejoin="round"/>
</svg>
